<?xml version="1.0" encoding="UTF-8"?>
<!DOCTYPE svg PUBLIC "-//W3C//DTD SVG 1.1//EN" "http://www.w3.org/Graphics/SVG/1.1/DTD/svg11.dtd">
<!-- Creator: CorelDRAW X7 -->
<svg xmlns="http://www.w3.org/2000/svg" xml:space="preserve" width="3.406in" height="0.810669in" version="1.1" style="shape-rendering:geometricPrecision; text-rendering:geometricPrecision; image-rendering:optimizeQuality; fill-rule:evenodd; clip-rule:evenodd"
viewBox="0 0 2631 626"
 xmlns:xlink="http://www.w3.org/1999/xlink">
 <defs>
  <style type="text/css">
   <![CDATA[
    .fil0 {fill:#020842}
    .fil3 {fill:#2AE9FA}
    .fil1 {fill:#2DE6FA}
    .fil4 {fill:#31EAFE}
    .fil5 {fill:#32EDFE}
    .fil2 {fill:#33EBFA}
    .fil7 {fill:#57E7FC}
    .fil6 {fill:#68F4FF}
   ]]>
  </style>
 </defs>
 <g id="Layer_x0020_1">
  <metadata id="CorelCorpID_0Corel-Layer"/>
  <g id="_2128716942208">
   <g>
    <path class="fil0" d="M2593 263c3,3 6,7 9,11 31,41 37,97 17,144 -22,55 -72,88 -129,98 -32,6 -73,8 -107,-2 -21,-1 -41,-8 -61,-18 -7,-3 -14,-8 -20,-11 -14,8 -28,15 -42,20 -43,18 -90,21 -135,12 -40,-8 -74,-26 -100,-50 -4,10 -10,19 -18,27 -15,15 -33,23 -54,22l-72 0c-41,0 -75,-34 -75,-76l0 -223 -32 0c-21,1 -39,-7 -54,-22 -15,-15 -22,-33 -22,-54l0 -64c0,-42 34,-75 75,-76l288 -1c21,0 40,8 55,23 15,16 22,34 21,56l0 17c61,-11 129,0 171,43 30,-27 70,-44 112,-47 61,-4 106,11 159,39 32,17 48,53 38,88 -5,16 -14,31 -24,44zm-1881 226c-14,15 -33,25 -55,26l-64 2c-11,0 -20,-2 -29,-5 -49,16 -103,11 -148,-13 -15,13 -34,19 -55,18 -23,-2 -47,0 -70,-2 -35,-2 -55,-15 -73,-39 -3,7 -8,13 -14,19 -16,16 -35,23 -56,22l-75 -2c-41,-2 -73,-35 -73,-76l0 -361c0,-22 8,-40 24,-55 15,-15 34,-22 55,-21 109,4 221,-23 305,70 7,8 14,17 19,25l65 1c23,0 44,10 58,27 14,-16 34,-27 56,-27l69 -3c22,-1 40,7 56,21 2,3 4,5 6,8 6,-4 11,-7 16,-10 49,-26 108,-30 160,-13 7,-2 14,-3 21,-3l68 -1c11,0 21,1 31,5 11,-5 24,-7 38,-5 9,1 19,1 28,1 22,0 39,-3 57,3 66,-22 144,-5 192,45 6,-5 12,-10 19,-14 51,-37 117,-52 178,-34 3,1 7,2 10,3 7,-2 15,-3 22,-3l70 -1c21,0 40,8 55,23 15,15 22,34 21,56 -1,58 1,116 1,175 -1,79 8,123 -43,193 -43,60 -120,84 -191,82 -61,-1 -148,-31 -185,-81 -6,-9 -11,-19 -13,-29l-42 -1c-22,-1 -42,-11 -56,-27 -14,17 -35,29 -59,29l-72 -1c-11,0 -21,-2 -31,-6 -9,4 -20,6 -31,5l-64 -1c-9,0 -17,-2 -24,-4 -11,3 -21,6 -31,8 -52,8 -104,-2 -146,-29z"/>
   </g>
   <g>
    <path class="fil1" d="M1405 320c-16,-104 132,-126 148,-27 12,71 -66,114 -119,72 -12,-9 -26,-26 -29,-45zm148 82c-1,23 -2,46 -15,60 -48,53 -122,29 -158,-5 -15,11 -30,28 -38,43 19,25 81,49 125,50 47,1 102,-13 129,-51 36,-50 27,-79 28,-149 0,-58 -2,-118 -1,-177l-69 1 -2 31c-68,-84 -223,-22 -223,99 0,84 71,149 160,135 42,-8 42,-26 64,-37z"/>
    <path class="fil2" d="M144 263c-2,-19 0,-51 0,-72 0,-22 -8,-54 13,-57 22,-2 62,-4 83,4 1,0 1,1 2,1l8 2c17,7 26,17 35,36 11,24 1,56 -22,77 -14,12 -37,10 -59,12 -19,1 -42,6 -60,-3zm-68 176l74 2 -2 -116 58 -1 70 101c5,9 6,14 20,15 23,1 47,-1 71,1 -8,-18 -75,-116 -88,-132 18,-12 59,-23 74,-72 15,-51 0,-85 -25,-114 -59,-65 -153,-41 -252,-45l0 361z"/>
    <path class="fil3" d="M822 231c21,-4 44,2 58,12 63,46 23,127 -23,138 -95,23 -135,-126 -35,-150zm90 180c1,12 -1,15 2,27l65 1 0 -266 -68 1 0 29c-30,-33 -92,-51 -146,-22 -127,69 -78,287 81,262 22,-4 50,-19 66,-32z"/>
    <path class="fil4" d="M1106 203c0,-39 9,-30 -30,-29 -12,0 -25,0 -37,-2l0 268 72 0c1,-43 -1,-89 -1,-133 0,-40 10,-72 57,-77 46,-4 61,33 62,71 1,46 0,92 -1,138l69 1c4,-28 1,-92 1,-123 0,-43 2,-72 -19,-105 -25,-40 -84,-57 -132,-35 -6,3 -15,7 -20,11 -10,6 -9,10 -21,15z"/>
    <path class="fil3" d="M2107 279c1,-26 33,-57 66,-55 32,1 62,26 63,56l-129 -1zm123 91c6,6 -12,11 -13,12 -21,7 -36,15 -69,4 -28,-9 -58,-36 -47,-64 15,-4 77,-3 98,-3 21,0 84,2 101,-2 -5,-113 -45,-96 -43,-121 -29,-35 -109,-37 -159,-6 -108,67 -78,228 42,252 33,7 63,4 91,-7 19,-8 59,-28 63,-47 -11,-7 -31,-25 -44,-31 -7,4 -13,8 -20,13z"/>
    <path class="fil1" d="M585 174c-9,78 29,204 -57,210 -20,1 -39,-9 -48,-20 -11,-14 -11,-33 -11,-55 0,-35 4,-104 -1,-135l-68 -1c-3,39 -1,84 -2,123 0,42 -1,75 20,105 31,46 91,55 135,34 14,-7 30,-23 38,-25l0 31 64 -2 -1 -268 -69 3z"/>
    <path class="fil4" d="M2396 437c24,-6 59,13 102,-10 16,-9 29,-11 37,-29l3 -7c5,-9 18,-21 6,-49 -12,-27 -32,-33 -36,-46 -20,-21 -99,-16 -107,-45 -6,-22 39,-47 104,-4l21 -23c5,-5 15,-17 17,-26 -34,-18 -67,-33 -118,-30 -69,5 -114,68 -81,119 33,52 160,46 139,87 -13,15 -39,17 -66,12 -28,-5 -41,-15 -61,-24l-38 47c18,5 52,33 78,28z"/>
    <path class="fil5" d="M1781 134c18,0 35,1 52,1 9,0 19,0 28,0l20 3c6,2 -3,1 5,2l2 289c20,9 56,5 59,3 6,-5 -3,-276 7,-300 25,-1 77,10 98,0 5,-8 4,-35 4,-48 -24,-4 -259,-5 -275,1 -3,10 -3,39 0,49z"/>
    <path class="fil6" d="M1781 134c-3,-10 -3,-39 0,-49 16,-6 251,-5 275,-1 0,13 1,40 -4,48 -21,10 -73,-1 -98,0 -10,24 -1,295 -7,300 -3,2 -39,6 -59,-3l-2 -289c-8,-1 1,0 -5,-2l-20 -3c-9,0 -19,0 -28,0 -17,0 -34,-1 -52,-1zm-7 7l108 0 0 299 71 0 1 -298 105 -1 2 -65 -287 1 0 64z"/>
    <path class="fil7" d="M150 143c47,-4 135,-11 133,58 -2,65 -70,63 -133,59l0 -117zm-6 120c18,9 41,4 60,3 22,-2 45,0 59,-12 23,-21 33,-53 22,-77 -9,-19 -18,-29 -35,-36l-8 -2c-1,0 -1,-1 -2,-1 -21,-8 -61,-6 -83,-4 -21,3 -13,35 -13,57 0,21 -2,53 0,72z"/>
    <path class="fil7" d="M2230 370c-22,12 -53,22 -81,10 -20,-8 -44,-26 -44,-54l202 -2c-4,-68 -11,-94 -50,-128 -2,25 38,8 43,121 -17,4 -80,2 -101,2 -21,0 -83,-1 -98,3 -11,28 19,55 47,64 33,11 48,3 69,-4 1,-1 19,-6 13,-12z"/>
    <path class="fil7" d="M2396 437c16,11 64,7 81,4 100,-17 96,-126 31,-145 4,13 24,19 36,46 12,28 -1,40 -6,49l-3 7c-8,18 -21,20 -37,29 -43,23 -78,4 -102,10z"/>
   </g>
  </g>
 </g>
</svg>
