<?xml version="1.0" encoding="UTF-8"?>
<!DOCTYPE svg PUBLIC "-//W3C//DTD SVG 1.1//EN" "http://www.w3.org/Graphics/SVG/1.1/DTD/svg11.dtd">
<!-- Creator: CorelDRAW X7 -->
<svg xmlns="http://www.w3.org/2000/svg" xml:space="preserve" width="3.495in" height="3.38653in" version="1.1" style="shape-rendering:geometricPrecision; text-rendering:geometricPrecision; image-rendering:optimizeQuality; fill-rule:evenodd; clip-rule:evenodd"
viewBox="0 0 2706 2622"
 xmlns:xlink="http://www.w3.org/1999/xlink">
 <defs>
  <style type="text/css">
   <![CDATA[
    .fil0 {fill:#020842}
    .fil3 {fill:#050A24}
    .fil2 {fill:#2DE6FA}
    .fil4 {fill:#68E7FD}
    .fil1 {fill:#FDFDFD}
   ]]>
  </style>
 </defs>
 <g id="Layer_x0020_1">
  <metadata id="CorelCorpID_0Corel-Layer"/>
  <g id="_2128714183728">
   <path class="fil0" d="M449 1089c-2,-16 -3,-206 2,-226 9,-44 71,-52 91,-17 10,18 2,186 5,228 3,51 53,57 82,69 59,25 15,155 -124,44 -23,-18 -51,-53 -56,-98zm1812 -67c-11,60 -63,112 -121,123 -29,5 -136,4 -177,4 -27,0 -30,5 -43,19 -19,21 -39,42 -59,62 -28,28 -41,51 -76,46 -28,-3 -57,-43 -35,-75 7,-11 47,-49 60,-61 12,-11 15,-16 29,-30 87,-78 -6,-56 245,-58 98,-1 77,-39 78,-166 1,-38 19,-65 59,-62 45,4 41,59 41,80 1,33 4,87 -1,118zm231 623c1,58 8,64 -12,131 -22,72 -72,131 -134,169 -14,8 -33,18 -50,25 -100,42 -34,-10 -78,99 -22,54 -49,84 -88,119 -133,116 -278,77 -431,86 3,8 19,33 25,40 9,13 17,26 25,40 16,24 36,52 53,76 16,24 47,56 18,88 -10,10 -26,20 -48,17 -35,-4 -50,-36 -68,-64 -40,-63 -90,-131 -133,-193 -14,-21 -44,-53 -51,-79 -16,-12 -43,-45 -56,-64 -17,-23 -31,-45 -42,-76 -20,-58 -14,-160 -14,-226 0,-80 1,-160 0,-240 0,-50 -7,-28 42,-77 14,-14 9,-13 30,-30 6,-5 11,-8 16,-14 4,-3 5,-4 8,-8l8 -8c3,134 0,298 -1,436 0,106 -7,172 84,241 26,19 42,24 73,38 43,11 265,8 307,-4 40,-12 79,-38 100,-60 13,-14 59,-71 54,-105l-182 0c-60,0 -120,0 -180,1 -30,0 -57,2 -75,-16 -17,-16 -21,-44 -4,-65 17,-22 36,-20 71,-20 31,0 62,1 93,1 68,-1 312,5 361,-7 50,-12 92,-33 120,-62 22,-22 41,-56 50,-89 3,-11 8,-31 6,-37 -100,33 -86,40 -209,40l-374 0c-35,0 -93,7 -114,-14 -26,-27 -10,-70 16,-82 17,-7 338,-4 371,-4 125,0 213,12 320,-53 83,-50 139,-163 111,-255l-8 2c0,-1 -1,-3 -1,-3l-3 -8c-8,-18 -11,-9 -11,-30l-14 -6c6,-6 -2,-18 -2,-23 -2,16 -6,13 -8,15 -5,7 5,7 -14,28 -5,5 -8,9 -11,15l-8 -3c-19,55 -104,122 -157,144 -84,36 -180,27 -277,28 -49,0 -99,-1 -149,-1 -50,0 -181,21 -167,-59 3,-18 19,-36 36,-39 29,-6 380,1 451,-2 60,-3 112,-37 150,-74 13,-13 20,-29 29,-48 40,-83 23,-43 62,-88 54,-63 53,-153 -7,-214 -44,-43 -66,-45 -88,-65 0,-36 43,-63 20,-148 -16,-56 -43,-74 -77,-103 3,-8 53,-62 65,-74 5,3 0,-1 6,5l19 19c32,31 43,42 65,88 28,61 26,105 13,171 24,27 30,12 72,69 45,60 66,143 40,218 -12,36 13,22 45,86 61,123 44,266 -52,369 -12,14 -25,22 -37,36zm-711 -1157l1 181c-5,6 -18,16 -25,21l-51 42c-10,8 -19,16 -27,21 3,-118 2,-237 2,-355 0,-77 62,-76 89,-50 13,12 8,28 14,43 18,6 41,11 61,17 19,5 39,13 58,19 20,6 41,11 60,17l51 19c6,4 3,1 7,5 -12,6 -27,21 -38,30 -5,4 -7,5 -13,10 -23,23 -34,35 -53,26 -21,-9 -44,-16 -67,-24 -19,-6 -50,-19 -69,-22zm636 -181l-567 616c-17,18 -27,27 -41,44 -13,15 -28,28 -41,43 -26,28 -55,57 -82,86 -33,36 -92,97 -122,131 -13,16 -28,28 -42,44 -34,39 -83,90 -121,131 -15,15 -31,29 -43,43 -31,36 -86,92 -123,129l-126 129 -44 -58c-44,-52 -94,-122 -135,-175l-177 -236c7,-5 91,-31 105,-36l103 -38c23,36 53,68 77,104 12,17 24,35 37,53 7,9 13,17 20,27 6,8 13,15 18,26 24,-24 131,-114 158,-136 14,-11 24,-20 40,-33l525 -440c28,-22 54,-43 81,-66l79 -68c14,-12 27,-21 41,-34 14,-12 27,-21 41,-34 11,-10 26,-23 38,-34 13,-10 27,-24 41,-34l141 -117c9,-8 12,-9 21,-17l82 -68c8,-6 82,-68 93,-71 -1,11 -9,14 -17,25l-60 64zm-1009 667c-1,-147 1,-295 1,-442 0,-68 -4,-150 2,-217 11,-117 108,-199 220,-221 68,-13 132,-2 196,14 115,28 213,96 239,204 26,4 83,23 99,37 -10,16 -81,71 -84,72 -16,-13 -80,-38 -103,-46 -4,-54 -23,-95 -68,-126 -36,-25 -89,-41 -138,-55 -69,-20 -157,-17 -211,32 -24,23 -35,37 -46,78 -9,37 -4,398 -4,478 0,29 4,73 2,99 -1,10 -3,10 -9,15l-82 66c-7,6 -6,7 -14,12zm-531 -767c2,9 4,2 -1,9l-26 9c-10,4 -18,12 -21,13 -5,2 -13,2 -24,11l-26 20c-2,2 -7,9 -9,12l-8 8c-2,2 -6,8 -8,13l-2 5c0,1 0,1 0,2l-2 7c-3,6 -6,13 -4,23 1,7 4,7 5,10 4,8 -1,7 -3,15 11,5 130,8 155,9 16,0 16,-7 23,-18 3,-6 3,-5 6,-11 8,6 3,-2 4,8 10,-10 20,-22 43,-21 65,3 48,86 48,152 0,88 -1,178 1,266 0,20 3,41 -8,56 -20,28 -68,32 -87,1 -10,-16 -7,-40 -7,-60 1,-86 5,-183 0,-268 -56,-1 -113,0 -168,0 -25,0 -58,4 -77,-9 -17,-12 -26,-31 -23,-62 -90,18 -169,85 -169,185 60,8 129,11 191,17 119,13 102,-10 103,209 0,32 -6,74 12,95 23,26 44,19 84,19 35,-1 71,-1 106,0 34,1 58,7 60,44 1,33 -24,51 -55,52 -50,2 -161,7 -202,-8 -148,-51 -98,-196 -106,-312 -42,-6 -89,-10 -132,-14 -23,-3 -45,-4 -66,-6 -30,-4 -41,-12 -63,5 -25,19 -45,51 -52,96 -9,60 25,86 22,123 -50,37 -97,51 -121,128 -17,53 -9,103 27,144 10,12 23,20 32,32 24,30 38,84 54,101 7,6 9,8 16,15 8,9 23,21 35,29 109,75 287,10 328,50 28,27 18,65 -12,81 -20,10 -214,7 -244,2 -30,-6 -68,-19 -93,-32 -146,-73 -154,-187 -183,-197 -28,37 -47,114 -35,172 9,43 36,91 67,119 4,4 10,11 14,15 33,26 92,58 145,70 54,12 236,8 313,8 39,0 72,-7 92,17 20,25 14,61 -9,74 -20,11 -75,7 -101,7 -71,0 -142,1 -214,1 -36,0 -65,-2 -99,-9 -45,-10 -62,-23 -82,-28 -3,88 88,171 176,187 52,9 364,5 449,4 30,0 57,-3 74,17 18,22 12,45 -3,65 -17,22 -42,18 -76,18 -119,-1 -246,-5 -364,-1 4,38 29,80 53,104 15,15 24,23 44,36 16,10 34,19 55,25 60,18 236,12 306,8 35,-19 78,-30 113,-74 62,-78 49,-128 49,-236 1,-95 -14,-74 54,-137 11,-9 41,-43 48,-47 1,63 1,126 0,189 0,56 4,130 -9,181 -12,42 -49,100 -72,120 -28,25 -77,66 -111,79 -54,34 -142,25 -213,25 -88,-1 -135,5 -212,-25 -60,-23 -109,-57 -142,-95 -9,-10 -18,-22 -26,-34 -29,-41 -39,-77 -48,-129 -31,-7 -81,-30 -105,-46 -38,-24 -52,-38 -80,-70 -40,-46 -81,-143 -68,-227 -7,-10 -29,-29 -41,-45 -8,-9 -12,-13 -19,-22 -29,-38 -54,-100 -62,-153 -15,-109 32,-205 85,-253 -9,-36 -19,-49 -17,-93 1,-30 10,-66 19,-92 15,-39 74,-109 103,-121 -5,-36 -14,-47 -9,-90 3,-25 12,-60 22,-81 14,-29 22,-38 40,-61 9,-10 40,-41 58,-45 0,-44 2,-74 20,-109 42,-82 84,-116 170,-153 19,-8 32,-9 51,-16 11,-34 25,-61 44,-85 18,-23 41,-45 66,-62 101,-70 283,-109 406,-52 57,27 106,71 132,126 26,57 17,170 17,239 0,86 0,173 1,258l-1 322c-2,9 -99,92 -100,93 -3,-53 0,-109 0,-162l0 -493c0,-53 1,-108 0,-162 -2,-99 -94,-149 -177,-154 -60,-3 -93,11 -144,25zm1507 309c5,-6 10,-10 16,-17l162 -191c63,-98 -65,-210 -171,-130l-142 114c-18,-11 -30,-19 -54,-29 -114,-47 -6,23 -119,-112 -67,-80 -195,-125 -302,-145 -98,-18 -230,5 -304,57l-62 50 -47 62c-8,-7 -15,-21 -23,-30 -9,-11 -16,-18 -23,-28 -9,-11 -16,-17 -27,-25 -169,-136 -439,-105 -594,7l-44 34c-16,14 -47,52 -60,71 -5,7 -15,27 -19,33 -13,15 -180,52 -246,223 -5,12 -10,29 -13,42 -3,13 -4,35 -7,45 -1,6 -19,21 -25,26 -50,41 -93,147 -97,217 0,14 4,40 -2,50 -14,24 -80,61 -107,206 -7,40 -3,61 1,99 3,29 -73,88 -75,236 -1,62 13,126 35,175 13,28 51,90 73,111 7,6 9,5 14,11 7,93 18,141 60,209 13,22 41,58 60,75l35 32c28,20 49,36 82,52 33,16 33,4 40,27 29,103 94,169 179,223 114,74 207,67 337,67 43,0 89,1 132,-3 75,-7 144,-46 187,-81 40,-33 71,-63 99,-104l23 -40 70 103c23,34 49,66 73,97 32,41 72,102 108,148 39,51 54,105 124,131 45,17 101,5 135,-19 15,-10 31,-29 39,-46 40,-80 -11,-138 -41,-187 128,3 215,-22 300,-81 31,-21 75,-62 95,-93 30,-46 40,-71 58,-130 69,-18 126,-64 170,-114 6,-6 10,-13 16,-20 6,-7 10,-14 15,-22 9,-13 18,-27 26,-43 47,-99 30,-124 41,-173 4,-18 55,-56 85,-127 30,-69 46,-163 29,-246 -10,-53 -31,-109 -64,-150 -19,-24 44,-111 -64,-274 -5,-6 -10,-15 -16,-20 -36,-38 -32,-10 -33,-69 0,-102 -38,-179 -104,-249l-34 -35z"/>
   <path class="fil1" d="M213 1648l106 62c1,0 1,0 2,1 20,5 37,18 82,28 34,7 63,9 99,9 72,0 143,-1 214,-1 26,0 81,4 101,-7 23,-13 29,-49 9,-74 -20,-24 -53,-17 -92,-17 -77,0 -259,4 -313,-8 -53,-12 -112,-44 -145,-70 -4,-4 -10,-11 -14,-15 -31,-28 -58,-76 -67,-119 -12,-58 7,-135 35,-172 29,10 37,124 183,197 25,13 63,26 93,32 30,5 224,8 244,-2 30,-16 40,-54 12,-81 -41,-40 -219,25 -328,-50 -12,-8 -27,-20 -35,-29 -7,-7 -9,-9 -16,-15 -16,-17 -30,-71 -54,-101 -9,-12 -22,-20 -32,-32 -36,-41 -44,-91 -27,-144 24,-77 71,-91 121,-128 3,-37 -31,-63 -22,-123 7,-45 27,-77 52,-96 22,-17 33,-9 63,-5 21,2 43,3 66,6 43,4 90,8 132,14 8,116 -42,261 106,312 41,15 152,10 202,8 31,-1 56,-19 55,-52 -2,-37 -26,-43 -60,-44 -35,-1 -71,-1 -106,0 -40,0 -61,7 -84,-19 -18,-21 -12,-63 -12,-95 -1,-219 16,-196 -103,-209 -62,-6 -131,-9 -191,-17 0,-100 79,-167 169,-185 -3,31 6,50 23,62 19,13 52,9 77,9 55,0 112,-1 168,0 5,85 1,182 0,268 0,20 -3,44 7,60 19,31 67,27 87,-1 11,-15 8,-36 8,-56 -2,-88 -1,-178 -1,-266 0,-66 17,-149 -48,-152 -23,-1 -33,11 -43,21 -3,8 -8,17 -11,28l-197 0c-2,-53 24,-92 47,-117 13,-13 28,-23 47,-33 17,-8 41,-15 55,-23 51,-14 84,-28 144,-25 83,5 175,55 177,154 1,54 0,109 0,162l0 493c0,53 -3,109 0,162 1,-1 98,-84 100,-93l1 -322c-1,-85 -1,-172 -1,-258 0,-69 9,-182 -17,-239 -26,-55 -75,-99 -132,-126 -123,-57 -305,-18 -406,52 -25,17 -48,39 -66,62 -19,24 -33,51 -44,85 -19,7 -32,8 -51,16 -86,37 -128,71 -170,153 -18,35 -20,65 -20,109 -18,4 -49,35 -58,45 -18,23 -26,32 -40,61 -10,21 -19,56 -22,81 -5,43 4,54 9,90 -29,12 -88,82 -103,121 -9,26 -18,62 -19,92 -2,44 8,57 17,93 -53,48 -100,144 -85,253 8,53 33,115 62,153 7,9 11,13 19,22 12,16 34,35 41,45z"/>
   <path class="fil2" d="M2401 289l-82 68c-9,8 -12,9 -21,17l-141 117c-14,10 -28,24 -41,34 -12,11 -27,24 -38,34 -14,13 -27,22 -41,34 -14,13 -27,22 -41,34l-79 68c-27,23 -53,44 -81,66l-525 440c-16,13 -26,22 -40,33 -27,22 -134,112 -158,136 -5,-11 -12,-18 -18,-26 -7,-10 -13,-18 -20,-27 -13,-18 -25,-36 -37,-53 -24,-36 -54,-68 -77,-104l-103 38c-14,5 -98,31 -105,36l177 236c41,53 91,123 135,175l44 58 126 -129c37,-37 92,-93 123,-129 12,-14 28,-28 43,-43 38,-41 87,-92 121,-131 14,-16 29,-28 42,-44 30,-34 89,-95 122,-131 27,-29 56,-58 82,-86 13,-15 28,-28 41,-43 14,-17 24,-26 41,-44l567 -616c-4,-10 -1,-10 6,-16 11,-11 5,-8 8,-17 -10,3 -8,3 -17,10 -16,13 -12,6 -13,5z"/>
   <path class="fil1" d="M2430 1327c9,-5 29,-57 44,-65 14,7 31,59 36,78 28,92 -28,205 -111,255 -107,65 -195,53 -320,53 -33,0 -354,-3 -371,4 -26,12 -42,55 -16,82 21,21 79,14 114,14l374 0c123,0 109,-7 209,-40 17,-9 36,-18 53,-28 13,-8 41,-24 50,-35 12,-14 25,-22 37,-36 96,-103 113,-246 52,-369 -32,-64 -57,-50 -45,-86 26,-75 5,-158 -40,-218 -42,-57 -48,-42 -72,-69 13,-66 15,-110 -13,-171 -22,-46 -33,-57 -65,-88l-19 -19c-6,-6 -1,-2 -6,-5 -12,12 -62,66 -65,74 34,29 61,47 77,103 23,85 -20,112 -20,148 22,20 44,22 88,65 60,61 61,151 7,214 -39,45 -22,5 -62,88 -9,19 -16,35 -29,48 -38,37 -90,71 -150,74 -71,3 -422,-4 -451,2 -17,3 -33,21 -36,39 -14,80 117,59 167,59 50,0 100,1 149,1 97,-1 193,8 277,-28 53,-22 138,-89 157,-144z"/>
   <path class="fil2" d="M2389 1708c2,6 -3,26 -6,37 -9,33 -28,67 -50,89 -28,29 -70,50 -120,62 -49,12 -293,6 -361,7 -31,0 -62,-1 -93,-1 -35,0 -54,-2 -71,20 -17,21 -13,49 4,65 18,18 45,16 75,16 60,-1 120,-1 180,-1l182 0c5,34 -41,91 -54,105 -21,22 -60,48 -100,60 -42,12 -264,15 -307,4 0,2 -38,73 -41,77 -26,-5 -88,-27 -128,-68 17,30 56,79 71,100 43,62 94,128 134,191 18,28 33,60 68,64 22,3 38,-7 48,-17 29,-32 -2,-64 -18,-88 -17,-24 -37,-52 -53,-76 -8,-14 -16,-27 -25,-40 -6,-7 -22,-32 -25,-40 153,-9 298,30 431,-86 39,-35 66,-65 88,-119 44,-109 -22,-57 78,-99 17,-7 36,-17 50,-25 62,-38 112,-97 134,-169 20,-67 13,-73 12,-131 -9,11 -37,27 -50,35 -17,10 -36,19 -53,28z"/>
   <path class="fil2" d="M1107 2249c-8,-3 -69,-67 -72,-75 -70,4 -246,10 -306,-8 -21,-6 -39,-15 -55,-25 -20,-13 -29,-21 -44,-36 -24,-24 -49,-66 -53,-104 118,-4 245,0 364,1 34,0 59,4 76,-18 15,-20 21,-43 3,-65 -17,-20 -44,-17 -74,-17 -85,1 -397,5 -449,-4 -88,-16 -179,-99 -176,-187 -1,-1 -1,-1 -2,-1l-106 -62c-13,84 28,181 68,227 28,32 42,46 80,70 24,16 74,39 105,46 9,52 19,88 48,129 8,12 17,24 26,34 33,38 82,72 142,95 77,30 124,24 212,25 71,0 159,9 213,-25z"/>
   <path class="fil1" d="M1408 974c8,-5 7,-6 14,-12l82 -66c6,-5 8,-5 9,-15 2,-26 -2,-70 -2,-99 0,-80 -5,-441 4,-478 11,-41 22,-55 46,-78 54,-49 142,-52 211,-32 49,14 102,30 138,55 45,31 64,72 68,126 23,8 87,33 103,46 3,-1 74,-56 84,-72 -16,-14 -73,-33 -99,-37 -26,-108 -124,-176 -239,-204 -64,-16 -128,-27 -196,-14 -112,22 -209,104 -220,221 -6,67 -2,149 -2,217 0,147 -2,295 -1,442z"/>
   <path class="fil1" d="M1520 2199c24,9 80,50 107,49 6,-9 12,-29 19,-40 6,-10 20,-29 22,-37 -31,-14 -47,-19 -73,-38 -91,-69 -84,-135 -84,-241 1,-138 4,-302 1,-436l-8 8c-3,4 -4,5 -8,8 -5,6 -10,9 -16,14 -21,17 -16,16 -30,30 -49,49 -42,27 -42,77 1,80 0,160 0,240 0,66 -6,168 14,226 11,31 25,53 42,76 13,19 40,52 56,64z"/>
   <path class="fil1" d="M2261 1022c5,-31 2,-85 1,-118 0,-21 4,-76 -41,-80 -40,-3 -58,24 -59,62 -1,127 20,165 -78,166 -251,2 -158,-20 -245,58 -14,14 -17,19 -29,30 -13,12 -53,50 -60,61 -22,32 7,72 35,75 35,5 48,-18 76,-46 20,-20 40,-41 59,-62 13,-14 16,-19 43,-19 41,0 148,1 177,-4 58,-11 110,-63 121,-123z"/>
   <path class="fil1" d="M1781 488c19,3 50,16 69,22 23,8 46,15 67,24 19,9 30,-3 53,-26 6,-5 8,-6 13,-10 11,-9 26,-24 38,-30 -4,-4 -1,-1 -7,-5l-51 -19c-19,-6 -40,-11 -60,-17 -19,-6 -39,-14 -58,-19 -20,-6 -43,-11 -61,-17 -6,-15 -1,-31 -14,-43 -27,-26 -89,-27 -89,50 0,118 1,237 -2,355 8,-5 17,-13 27,-21l51 -42c7,-5 20,-15 25,-21l-1 -181z"/>
   <path class="fil1" d="M1035 2174c3,8 64,72 72,75 34,-13 83,-54 111,-79 23,-20 60,-78 72,-120 13,-51 9,-125 9,-181 1,-63 1,-126 0,-189 -7,4 -37,38 -48,47 -68,63 -53,42 -54,137 0,108 13,158 -49,236 -35,44 -78,55 -113,74z"/>
   <path class="fil1" d="M449 1089c5,45 33,80 56,98 139,111 183,-19 124,-44 -29,-12 -79,-18 -82,-69 -3,-42 5,-210 -5,-228 -20,-35 -82,-27 -91,17 -5,20 -4,210 -2,226z"/>
   <path class="fil3" d="M936 352c-1,-10 4,-2 -4,-8 -3,6 -3,5 -6,11 -7,11 -7,18 -23,18 -25,-1 -144,-4 -155,-9 2,-8 7,-7 3,-15 -1,-3 -4,-3 -5,-10 -2,-10 1,-17 4,-23l2 -7c0,-1 0,-1 0,-2l2 -5c2,-5 6,-11 8,-13l8 -8c2,-3 7,-10 9,-12l26 -20c11,-9 19,-9 24,-11 3,-1 11,-9 21,-13l26 -9c5,-7 3,0 1,-9 -14,8 -38,15 -55,23 -19,10 -34,20 -47,33 -23,25 -49,64 -47,117l197 0c3,-11 8,-20 11,-28z"/>
   <path class="fil3" d="M2430 1327l8 3c3,-6 6,-10 11,-15 19,-21 9,-21 14,-28 2,-2 6,1 8,-15 0,5 8,17 2,23l14 6c0,21 3,12 11,30l3 8c0,0 1,2 1,3l8 -2c-5,-19 -22,-71 -36,-78 -15,8 -35,60 -44,65z"/>
   <path class="fil4" d="M2401 289c1,1 -3,8 13,-5 9,-7 7,-7 17,-10 -3,9 3,6 -8,17 -7,6 -10,6 -6,16l60 -64c8,-11 16,-14 17,-25 -11,3 -85,65 -93,71z"/>
  </g>
 </g>
</svg>
